<svg width="29" height="28" viewBox="0 0 29 28" fill="none" xmlns="http://www.w3.org/2000/svg">
<path fill-rule="evenodd" clip-rule="evenodd" d="M14.2471 28C21.979 28 28.2471 21.7319 28.2471 14C28.2471 6.26801 21.979 0 14.2471 0C6.51508 0 0.24707 6.26801 0.24707 14C0.24707 21.7319 6.51508 28 14.2471 28ZM15.2971 9.8C15.2971 9.22011 14.827 8.75 14.2471 8.75C13.6672 8.75 13.1971 9.22011 13.1971 9.8V12.95H10.0471C9.46718 12.95 8.99707 13.4201 8.99707 14C8.99707 14.5799 9.46718 15.05 10.0471 15.05H13.1971V18.2C13.1971 18.7799 13.6672 19.25 14.2471 19.25C14.827 19.25 15.2971 18.7799 15.2971 18.2V15.05H18.4471C19.0269 15.05 19.4971 14.5799 19.4971 14C19.4971 13.4201 19.0269 12.95 18.4471 12.95H15.2971V9.8Z" fill="url(#paint0_linear_175_119)"/>
<defs>
<linearGradient id="paint0_linear_175_119" x1="0.24707" y1="16" x2="28.2292" y2="15.2929" gradientUnits="userSpaceOnUse">
<stop stop-color="#D1E1FF"/>
<stop offset="1" stop-color="#7AA7FF"/>
</linearGradient>
</defs>
</svg>
