<svg width="26" height="22" viewBox="0 0 26 25" fill="none" xmlns="http://www.w3.org/2000/svg">
<path fill-rule="evenodd" clip-rule="evenodd" d="M12.7471 0C5.84395 0 0.24707 4.89766 0.24707 10.9375C0.24707 14.2177 1.901 17.1566 4.51526 19.1604C4.77391 19.3586 4.93457 19.662 4.93457 19.9879V23.2235C4.93457 24.003 5.7869 24.4828 6.45333 24.0784L10.094 21.8693C10.2981 21.7454 10.5397 21.7 10.7762 21.7333C11.4184 21.8238 12.0759 21.875 12.7471 21.875C19.6502 21.875 25.2471 16.9781 25.2471 10.9375C25.2471 4.89766 19.6502 0 12.7471 0Z" fill="url(#paint0_linear_175_95)"/>
<path d="M0.74707 10.9375C0.74707 5.23441 6.0553 0.5 12.7471 0.5C19.4388 0.5 24.7471 5.23441 24.7471 10.9375C24.7471 16.6413 19.4389 21.375 12.7471 21.375C12.1014 21.375 11.4673 21.3257 10.8459 21.2382C10.5014 21.1897 10.1426 21.255 9.8346 21.4419L6.19395 23.651C5.86073 23.8532 5.43457 23.6133 5.43457 23.2235V19.9879C5.43457 19.4951 5.19226 19.0493 4.81943 18.7636C2.31076 16.8407 0.74707 14.041 0.74707 10.9375Z" stroke="white" stroke-opacity="0.3"/>
<defs>
<linearGradient id="paint0_linear_175_95" x1="4.74707" y1="2" x2="19.2471" y2="19" gradientUnits="userSpaceOnUse">
<stop stop-color="#7AA7FF"/>
<stop offset="1" stop-color="#0057FF"/>
</linearGradient>
</defs>
</svg>
