<svg width="145" height="84" viewBox="0 0 145 84" fill="none" xmlns="http://www.w3.org/2000/svg">
<g clip-path="url(#clip0_9_8)">
<path d="M24.0151 16.7044C10.0849 15.8211 12.8055 13.8732 12.8055 13.8732C14.8289 20.2278 14.4719 22.9744 9.97498 25.7598C9.97498 25.7598 -2.4508 58.1719 0.43464 65.8235C3.32008 73.4751 11.6443 68.6547 11.6443 68.6547C8.42924 64.1892 8.78126 61.8773 14.1405 58.1719L20.7973 30.2173C20.7973 30.2173 37.9454 17.5878 24.0151 16.7044Z" fill="#0501BE"/>
<path d="M88.3725 4.86716C86.3577 -0.188375 74.816 4.26913 71.2976 0.554538C67.7792 -3.16005 68.1132 13.9269 68.1132 13.9269C71.038 20.5038 63.698 26.5565 64.9288 27.2994C66.1596 28.0423 55.0219 68.9025 55.0219 68.9025C55.9939 74.3594 55.1631 76.5516 52.4537 79.6873L69.5286 84C65.247 82.9388 68.2812 59.8257 75.6005 58.5018C82.9198 57.1778 75.0342 48.9198 78.7849 45.1293L85.3305 17.6416C82.7123 11.2002 90.3872 9.92269 88.3725 4.86716Z" fill="#FFB800"/>
<path d="M143.868 16.273C143.868 16.273 148.636 8.2414 132.658 13.4417C116.68 18.6421 128.943 29.043 128.943 29.043C130.803 35.1735 130.219 37.8524 126.058 41.1579L120.288 65.392C99.4007 64.0613 127.592 83.8699 131.497 68.2232C135.402 52.5766 137.184 44.3438 140.827 29.043C139.057 22.8107 139.956 20.1137 143.868 16.273Z" fill="#BE0101"/>
<mask id="mask0_9_8" style="mask-type:luminance" maskUnits="userSpaceOnUse" x="0" y="22" width="145" height="36">
<path d="M122.059 22.7044C121.368 22.8777 119.884 23.1624 119.238 23.2367C118.377 23.3357 116.144 23.8679 115.328 24.165C114.774 24.363 112.043 25.0685 109.833 25.576C109.403 25.6751 108.575 25.8731 107.997 26.0093C105.55 26.6157 102.514 26.9128 98.7282 26.9252C95.8167 26.9252 94.6837 26.8138 93.346 26.393C92.938 26.2692 92.3039 26.0959 91.9298 26.0216C91.2048 25.8607 90.0826 25.2789 89.7655 24.8952C89.5161 24.5858 89.6862 24.5981 90.1164 24.9076C90.5359 25.2047 91.5335 25.2542 91.5335 24.9695C91.5335 24.8829 91.4649 24.7467 91.3856 24.6972C91.2957 24.6477 91.0801 24.3012 90.91 23.9421C90.4344 22.9767 90.1396 22.7663 89.4368 22.853C89.1313 22.9025 88.4398 22.9891 87.9073 23.051C86.3663 23.2614 84.6893 23.4223 82.9782 23.5337C82.1057 23.5832 81.2106 23.6946 80.9953 23.7813C80.78 23.8556 79.3296 24.0041 77.766 24.1154C75.5677 24.264 74.8311 24.2764 74.4685 24.165C74.1513 24.066 73.9246 24.0536 73.7887 24.1402C73.3808 24.3754 72.5649 24.4249 71.9643 24.2516C71.4998 24.1154 70.8879 24.1031 68.9049 24.1897C67.4432 24.2516 65.245 24.2392 63.4886 24.165C60.1119 24.0288 59.7721 23.9917 57.1432 23.6698C56.0894 23.5461 54.3784 23.3852 53.3473 23.3233C51.353 23.1996 51.0584 23.249 50.7185 23.7813C50.6165 23.9298 50.4012 24.0412 50.1179 24.066C49.7553 24.0907 49.6533 24.165 49.5626 24.4249C49.4153 24.8829 49.5626 25.4028 49.8347 25.4028C50.4125 25.4028 50.1292 25.8483 49.2341 26.3559C47.5798 27.2594 45.9594 27.544 42.4128 27.544C37.5969 27.5317 33.5404 26.888 29.4952 25.5018C28.872 25.2789 28.2827 25.0933 28.1922 25.0809C28.1015 25.0685 27.331 24.8333 26.4924 24.561C23.9656 23.7442 21.4727 23.2242 21.0309 23.41C20.623 23.5832 20.1584 24.4002 20.0677 25.1304C20.0337 25.4522 19.8864 25.9721 19.7391 26.2815C19.1159 27.6555 17.1782 29.574 15.3313 30.6632C13.9942 31.4306 13.6429 32.0124 14.0849 32.656C14.1982 32.817 14.2435 33.2006 14.2548 33.8566C14.2548 35.0449 14.3681 35.3048 14.8667 35.3048C15.15 35.3048 15.2633 35.3791 15.3653 35.6142C15.5579 36.0598 15.9772 36.0227 16.3284 35.54C16.5097 35.2925 16.657 35.1811 16.7477 35.243C16.8269 35.2925 17.0876 35.8 17.3255 36.3569C17.7335 37.31 17.9487 38.3003 18.1527 40.1569C18.2207 40.8377 18.1867 40.8624 17.4049 40.5777C17.1329 40.4787 16.7137 40.3549 16.4644 40.3177C15.4332 40.1198 12.6912 38.4364 11.422 37.211C10.9575 36.7654 10.3229 36.2579 10.0056 36.1094C8.54391 35.3791 8.50991 35.3667 6.82157 35.3667H5.22388L4.11343 35.9608C2.96898 36.5921 2.43642 37.0872 1.5186 38.3993C1.25798 38.7705 0.92938 39.2904 0.793405 39.5504C0.204185 40.652 -0.158412 43.4369 0.0682111 45.1079C0.204185 46.061 0.680094 47.4349 1.06535 48.0043C1.21266 48.2147 1.39396 48.5489 1.45061 48.747C1.59791 49.2049 2.96898 50.5665 3.49022 50.7645C3.70551 50.8388 4.0681 51.0492 4.2834 51.2101C4.67999 51.5071 5.20122 51.6928 6.31168 51.9033C6.65161 51.9652 6.96888 52.0518 7.02553 52.0889C7.12751 52.1632 9.63172 52.3365 12.1019 52.4479C14.2548 52.5469 16.2831 52.8192 18.1641 53.24C21.5408 54.0074 22.4925 54.3664 25.9825 56.2231C27.1043 56.8172 28.3055 57.3741 28.6567 57.4608C29.0873 57.5598 29.8691 57.597 31.0929 57.5598C32.8606 57.4979 33.4725 57.3866 36.124 56.6562C37.7556 56.2106 39.4439 55.8765 41.4496 55.6042C41.9821 55.5299 43.2285 55.3442 44.2257 55.1957C46.4806 54.8615 48.8715 54.8367 50.945 55.1338C53.1773 55.4556 55.6362 56.1983 57.2566 57.0152L58.0497 57.4237L59.0129 57.2628C59.5454 57.1762 60.5426 57.04 61.2224 56.9657C61.9137 56.8791 62.8768 56.7429 63.3753 56.6439C66.0609 56.1488 70.5933 55.7403 74.0606 55.6784C75.5337 55.6536 76.9387 55.5917 77.1654 55.5423C77.4826 55.4804 77.6299 55.5051 77.7773 55.6661C77.8905 55.7775 78.0379 55.8269 78.1512 55.7898C78.7064 55.5423 83.5334 55.5299 89.0404 55.765C90.2981 55.8269 94.9554 56.3221 96.066 56.5201C98.3319 56.9285 98.8761 57.0028 99.1477 56.9285C99.2947 56.8791 99.8166 56.5201 100.281 56.1117C101.278 55.2452 101.742 54.9853 103.068 54.4778C105.063 53.7104 106.003 53.5124 108.36 53.3638C110.898 53.2029 113.969 53.4257 115.726 53.896C115.974 53.958 116.496 54.0817 116.881 54.1807C117.277 54.2674 117.708 54.4159 117.845 54.5149C117.992 54.614 118.875 54.9605 119.805 55.2947C120.745 55.6165 122.071 56.124 122.75 56.4087C123.441 56.7058 124.314 56.9781 124.699 57.0276L125.413 57.1143L125.64 56.681C125.776 56.4458 125.991 56.2106 126.138 56.1735C126.535 56.0621 126.988 55.6289 127.227 55.0967C127.465 54.6016 128.507 53.401 129.39 52.6212C130.048 52.0271 131.033 51.5319 131.804 51.3957C132.529 51.272 132.733 51.1606 133.119 50.715C133.549 50.2199 133.493 49.4401 132.972 48.4623C132.427 47.4597 132.212 46.4324 132.19 44.5633C132.166 42.5953 132.529 40.5654 132.982 40.1569C133.232 39.9465 133.356 39.9712 133.265 40.2064C133.221 40.3549 133.425 40.6644 133.98 41.2461C135.384 42.7438 135.861 43.3627 136.065 43.9444C136.665 45.6154 136.869 46.0362 137.594 47.0884C138.308 48.1157 138.489 48.289 139.226 48.6975C140.246 49.2792 140.926 49.3163 141.99 48.8583C142.614 48.586 142.784 48.4252 143.317 47.6701C143.657 47.1874 144.053 46.5809 144.2 46.3333C145.073 44.7985 145.265 41.3947 144.608 39.34C144.404 38.7211 143.475 37.0006 143.192 36.7159C143.079 36.6045 142.976 36.4436 142.976 36.3569C142.976 36.2331 141.606 34.785 140.314 33.5472C139.34 32.6065 136.688 29.5616 136.257 28.8685C136.156 28.6952 135.827 28.1629 135.532 27.6926C135.237 27.2099 134.875 26.7271 134.728 26.591C134.58 26.4672 134.263 25.8978 134.014 25.3408C133.617 24.4125 133.515 24.2764 132.869 23.8184C132.235 23.3604 131.679 23.15 130.75 22.9891C130.592 22.9644 130.251 22.8653 130.002 22.7911C129.504 22.6178 122.66 22.5435 122.059 22.7044ZM123.94 23.1748C123.94 23.249 123.532 23.2986 122.954 23.2986C121.742 23.2986 119.51 23.5832 118.049 23.9421C116.983 24.1897 115.714 24.6106 115.499 24.7839C115.158 25.0437 109.437 26.4053 106.831 26.8386C101.142 27.7916 95.9075 27.7792 92.3261 26.8138C90.4798 26.3063 88.7571 25.0191 88.4739 23.9421C88.3265 23.3233 88.4285 23.2861 88.6438 23.8927C88.9384 24.6848 90.3097 25.8236 91.5219 26.2939C94.0033 27.2346 99.5102 27.6431 103.261 27.148C107.861 26.5415 114.003 25.2418 115.657 24.5239C116.665 24.0783 119.011 23.4223 119.601 23.41C119.839 23.41 120.439 23.3357 120.938 23.249C122.059 23.051 123.94 23.0015 123.94 23.1748ZM130.286 23.5461C130.376 23.608 130.41 23.6698 130.342 23.6698C130.286 23.6698 130.15 23.608 130.059 23.5461C129.968 23.4842 129.946 23.4223 130.002 23.4223C130.071 23.4223 130.195 23.4842 130.286 23.5461ZM52.5541 23.7813C52.5541 23.8431 52.5881 23.9793 52.6221 24.0907C52.6561 24.2021 52.6334 24.2887 52.5654 24.2887C52.4975 24.2887 52.4408 24.2021 52.4408 24.1031C52.4408 24.0041 52.3841 23.9175 52.3161 23.9175C52.2595 23.9175 52.2369 23.8556 52.2708 23.7936C52.3615 23.6327 52.5541 23.6327 52.5541 23.7813ZM53.098 24.0164C53.166 24.2392 52.928 24.1897 52.8488 23.9669C52.8034 23.8431 52.8374 23.7936 52.9167 23.8184C52.9847 23.8431 53.0753 23.9421 53.098 24.0164ZM56.8033 24.1031C62.3782 24.6106 71.2845 24.8086 75.8963 24.5239C77.1087 24.4373 79.205 24.363 80.5421 24.3383C81.8791 24.3135 83.2049 24.2764 83.4655 24.264C83.8394 24.2392 83.9867 24.2887 84.0661 24.4496C84.134 24.561 84.2586 24.6601 84.3606 24.6601C84.5079 24.6601 84.5193 24.6972 84.4173 24.8086C84.3153 24.92 84.236 24.8952 84.0433 24.722C83.896 24.561 83.6468 24.4868 83.3409 24.4868C81.8451 24.4992 76.8935 24.6725 75.0464 24.7715C70.7972 25.0191 64.8597 24.9076 58.8429 24.4744C55.0809 24.2021 53.234 24.0041 53.234 23.8803C53.234 23.806 53.5512 23.7936 54.0045 23.8308C54.4237 23.8803 55.6815 23.9917 56.8033 24.1031ZM86.9215 24.2887C87.0235 24.4868 87.0574 24.6848 87.0008 24.722C86.8875 24.7962 86.5362 24.0907 86.6382 23.9917C86.7289 23.8803 86.7515 23.8927 86.9215 24.2887ZM84.9612 24.2887C84.9612 24.4249 85.0405 24.5363 85.1312 24.5363C85.2218 24.5363 85.3011 24.5858 85.3011 24.6601C85.3011 24.722 85.1992 24.7839 85.0745 24.7839C84.9499 24.7839 84.8479 24.7096 84.8479 24.6106C84.8479 24.5116 84.8139 24.3506 84.7799 24.2392C84.7459 24.1279 84.7685 24.0412 84.8366 24.0412C84.9045 24.0412 84.9612 24.1526 84.9612 24.2887ZM85.811 24.5363L85.879 24.8458L85.6524 24.5363C85.5277 24.3754 85.4598 24.1897 85.4938 24.1279C85.5731 23.9793 85.7091 24.165 85.811 24.5363ZM86.4455 24.6106C86.4909 24.8086 86.5588 25.0809 86.6156 25.2171C86.6948 25.4399 86.6835 25.4399 86.5136 25.2914C86.4116 25.2047 86.3209 24.9695 86.3209 24.7715C86.3209 24.5735 86.2756 24.4125 86.2077 24.4125C86.1509 24.4125 86.0943 24.3506 86.0943 24.2764C86.0943 24.0041 86.3776 24.264 86.4455 24.6106ZM87.9073 24.5982C88.0093 24.5363 88.0319 24.5487 87.9753 24.6353C87.8507 24.8581 87.522 24.8086 87.3747 24.5487C87.1821 24.2145 87.3521 24.1031 87.5787 24.4249C87.692 24.5981 87.8166 24.6601 87.9073 24.5982ZM132.099 24.6601C132.19 24.722 132.223 24.7839 132.156 24.7839C132.099 24.7839 131.962 24.722 131.872 24.6601C131.782 24.5982 131.758 24.5363 131.815 24.5363C131.883 24.5363 132.008 24.5982 132.099 24.6601ZM25.3254 25.1799C25.654 25.3285 25.9259 25.4893 25.9259 25.5512C25.9259 25.7122 25.6766 25.6626 25.144 25.4028C24.8721 25.2666 24.5888 25.1552 24.4981 25.1552C24.4189 25.1552 24.3169 25.0933 24.2829 25.0314C24.1583 24.821 24.7021 24.8952 25.3254 25.1799ZM132.212 25.3408C132.212 25.4399 132.303 25.576 132.416 25.6379C132.518 25.7122 132.552 25.7741 132.473 25.7741C132.405 25.7741 132.257 25.6503 132.166 25.5018C131.962 25.1923 131.929 24.9819 132.099 25.0933C132.166 25.1304 132.212 25.2418 132.212 25.3408ZM27.8975 25.8236C29.4499 26.3682 29.8691 26.5044 30.2091 26.5786C30.4017 26.6282 30.5717 26.7148 30.5717 26.7767C30.5717 26.9376 29.9258 26.8014 28.9287 26.4424C28.4981 26.2939 27.7275 26.0464 27.2403 25.9103C26.7417 25.7617 26.3112 25.6132 26.2771 25.576C26.1752 25.4522 27.3536 25.6379 27.8975 25.8236ZM22.2093 25.7864C23.0591 25.9349 23.7503 26.1949 23.5917 26.3063C23.5351 26.3434 23.2291 26.2939 22.9005 26.2073C22.5832 26.1207 22.0393 26.0093 21.688 25.9597C21.3368 25.9103 21.0535 25.8236 21.0535 25.7617C21.0535 25.6132 21.2348 25.6255 22.2093 25.7864ZM133.481 25.9721C133.855 26.1826 134.241 26.6157 134.251 26.8261C134.251 26.888 134.116 26.7643 133.946 26.5538C133.764 26.3434 133.481 26.0835 133.289 25.9721C133.107 25.8731 132.994 25.7864 133.039 25.7741C133.085 25.7741 133.289 25.8607 133.481 25.9721ZM26.3791 26.0216C26.5151 26.1207 26.4811 26.1454 26.2318 26.1454C26.0506 26.1454 25.9372 26.0959 25.9825 26.0216C26.0732 25.8731 26.1639 25.8731 26.3791 26.0216ZM51.2624 26.3434C51.0131 26.591 50.8545 26.6405 50.6052 26.591C50.3785 26.5415 50.1066 26.6157 49.744 26.8138C49.0641 27.1975 47.897 27.5688 46.6052 27.8288C45.2342 28.1011 40.7017 28.2125 38.7641 28.0144C36.0672 27.7421 32.1354 26.9994 30.719 26.5044C30.1071 26.2939 30.2997 26.1578 30.9456 26.3434C32.4866 26.789 35.5914 27.3955 37.5403 27.6431C39.3987 27.8659 40.1238 27.903 42.8659 27.8411C45.2568 27.804 46.2653 27.7298 46.9452 27.5688C48.2596 27.2717 49.3587 26.9004 49.9593 26.5663C50.3332 26.3682 50.5145 26.3187 50.6052 26.4177C50.6958 26.5167 50.8318 26.4796 51.1037 26.2939C51.6136 25.9474 51.6589 25.9721 51.2624 26.3434ZM25.5293 26.3187C25.7219 26.4301 25.7786 26.5167 25.6766 26.5415C25.484 26.6157 25.008 26.3805 25.0874 26.2568C25.1667 26.1207 25.1667 26.1207 25.5293 26.3187ZM21.2801 26.3187C21.2801 26.3559 21.2348 26.4177 21.1668 26.4548C21.1101 26.492 21.0535 26.4672 21.0535 26.4053C21.0535 26.3311 21.1101 26.2692 21.1668 26.2692C21.2348 26.2692 21.2801 26.2939 21.2801 26.3187ZM23.2404 27.0613C23.5464 27.0613 23.467 27.2594 23.1611 27.2594C22.8098 27.2594 22.5266 27.1356 22.5266 26.9871C22.5266 26.9252 22.6399 26.9128 22.7872 26.9623C22.9232 27.0119 23.1271 27.0613 23.2404 27.0613ZM21.3821 27.5193C22.0393 27.7669 22.1527 27.8411 22.0507 27.9525C22.0054 27.9896 21.62 27.8783 21.1668 27.705C20.7249 27.5317 20.2604 27.3832 20.1357 27.3832C20.0224 27.3832 19.9204 27.3213 19.9204 27.2594C19.9204 27.0861 20.5436 27.2099 21.3821 27.5193ZM133.81 27.4698L134.081 27.804L133.81 27.6183C133.651 27.5069 133.504 27.3584 133.481 27.2842C133.413 27.049 133.515 27.1109 133.81 27.4698ZM22.6399 27.5069C22.6399 27.5688 22.5605 27.6307 22.4699 27.6307C22.3793 27.6307 22.2999 27.5688 22.2999 27.5069C22.2999 27.4327 22.3793 27.3832 22.4699 27.3832C22.5605 27.3832 22.6399 27.4327 22.6399 27.5069ZM19.7391 27.6183C19.8297 27.7792 19.7051 27.8535 19.4671 27.7916C19.3425 27.7544 19.2745 27.6802 19.3085 27.6183C19.3878 27.4822 19.6598 27.4698 19.7391 27.6183ZM21.2008 28.0515C21.5408 28.2125 21.858 28.4105 21.892 28.4848C22.0167 28.7075 21.7787 28.6456 21.2348 28.3115C20.9515 28.1382 20.6456 28.0021 20.5549 28.0021C20.4643 28.0021 20.3509 27.9402 20.317 27.8783C20.2036 27.6679 20.5663 27.7421 21.2008 28.0515ZM134.818 27.9402C134.818 28.0392 134.796 28.1258 134.772 28.1258C134.75 28.1258 134.705 28.0392 134.659 27.9402C134.626 27.8411 134.649 27.7544 134.705 27.7544C134.772 27.7544 134.818 27.8411 134.818 27.9402ZM20.7476 28.4848C20.9175 28.5591 21.0535 28.6828 21.0535 28.7571C21.0535 28.8437 20.9741 28.8561 20.8608 28.8066C20.7476 28.7571 20.5096 28.6581 20.317 28.5962C19.8184 28.4105 19.6711 28.2 20.0903 28.2867C20.283 28.3239 20.5663 28.4105 20.7476 28.4848ZM134.739 28.621C134.772 28.7571 134.75 28.8437 134.693 28.7942C134.637 28.7571 134.592 28.6456 134.592 28.5466C134.592 28.2991 134.671 28.3362 134.739 28.621ZM20.0224 28.7695C20.3056 28.918 20.4756 29.0541 20.419 29.0789C20.283 29.1284 19.2406 28.6704 19.2406 28.5591C19.2406 28.4352 19.5238 28.5095 20.0224 28.7695ZM18.0507 29.2274C17.9714 29.376 16.2151 30.6756 15.4559 31.1584C15.15 31.3563 14.9233 31.4554 14.9687 31.3811C15.014 31.3069 15.3653 31.0469 15.7619 30.7994C16.1471 30.5642 16.8269 30.0815 17.2576 29.7473C18.0961 29.0912 18.1641 29.0541 18.0507 29.2274ZM135.725 29.4874C135.815 29.5493 135.849 29.6111 135.782 29.6111C135.725 29.6111 135.588 29.5493 135.498 29.4874C135.408 29.4255 135.384 29.3636 135.441 29.3636C135.509 29.3636 135.634 29.4255 135.725 29.4874ZM140.008 33.869C140.45 34.3394 140.824 34.7726 140.824 34.8221C140.824 34.8717 140.45 34.5126 139.996 34.0299C139.544 33.5349 138.479 32.4208 137.617 31.5421C136.768 30.6632 136.053 29.8834 136.019 29.7844C135.986 29.6978 136.688 30.3909 137.572 31.3317C138.455 32.26 139.554 33.411 140.008 33.869ZM139.294 35.4286C139.328 35.4905 139.305 35.5524 139.249 35.5524C139.18 35.5524 139.124 35.4905 139.124 35.4286C139.124 35.3544 139.147 35.3048 139.17 35.3048C139.204 35.3048 139.26 35.3544 139.294 35.4286ZM141.867 36.3693C142.467 36.7035 143.475 37.6442 143.679 38.0898C143.747 38.2259 143.543 38.028 143.226 37.6442C142.875 37.2234 142.342 36.7778 141.877 36.5054C140.994 35.9856 140.982 35.8866 141.867 36.3693ZM18.9799 44.7366C18.9459 44.8356 18.9119 44.7985 18.9119 44.6623C18.9006 44.5262 18.9346 44.4519 18.9685 44.5014C19.0026 44.5385 19.0139 44.65 18.9799 44.7366ZM18.8666 45.3555C18.8326 45.4545 18.7986 45.4174 18.7986 45.2812C18.7873 45.1451 18.8212 45.0708 18.8553 45.1203C18.8893 45.1574 18.9006 45.2689 18.8666 45.3555ZM131.645 46.2591C131.645 46.3209 131.589 46.2962 131.532 46.1972C131.475 46.0982 131.419 45.9496 131.419 45.8877C131.419 45.8134 131.475 45.8506 131.532 45.9496C131.589 46.0486 131.645 46.1847 131.645 46.2591ZM132.892 49.3287C132.892 49.403 132.665 48.9821 132.382 48.4004C132.099 47.8063 131.872 47.2864 131.872 47.2245C131.872 47.0759 132.892 49.1678 132.892 49.3287ZM17.2009 47.6825C17.2009 47.7444 17.1556 47.8063 17.099 47.8063C17.0309 47.8063 16.9516 47.7444 16.9176 47.6825C16.8837 47.6082 16.9289 47.5587 17.0196 47.5587C17.1216 47.5587 17.2009 47.6082 17.2009 47.6825ZM129.629 50.1456C129.651 50.3561 129.64 50.4922 129.583 50.4551C129.538 50.418 129.493 50.3065 129.493 50.1951C129.493 50.0837 129.402 49.8857 129.3 49.7495C129.107 49.5143 129.107 49.502 129.334 49.6381C129.481 49.7248 129.606 49.9352 129.629 50.1456ZM130.422 50.5293C130.626 50.6655 130.75 50.7769 130.683 50.7769C130.626 50.7769 130.422 50.6655 130.229 50.5293C129.787 50.2075 129.946 50.2075 130.422 50.5293ZM129.968 51.272C130.037 51.272 130.071 51.3092 130.037 51.3463C129.934 51.4453 129.493 51.173 129.493 51.0121C129.493 50.9378 129.572 50.9749 129.674 51.074C129.764 51.1853 129.901 51.272 129.968 51.272ZM17.8241 51.1482C17.7901 51.2101 17.6428 51.3338 17.5069 51.4081C17.2689 51.5319 17.2689 51.5196 17.5295 51.2844C17.8128 50.9997 17.9374 50.9502 17.8241 51.1482ZM18.2774 51.5196C18.2434 51.5814 18.1414 51.6433 18.0734 51.6433C17.9941 51.6433 18.0054 51.5938 18.1074 51.5196C18.3227 51.371 18.3681 51.371 18.2774 51.5196ZM123.498 54.5397C123.714 54.7253 123.77 54.8244 123.645 54.7501C123.306 54.5768 122.807 53.896 122.807 53.6485C122.819 53.5371 122.887 53.6114 122.966 53.8218C123.057 54.0322 123.295 54.354 123.498 54.5397ZM124.564 54.1188C124.677 54.255 124.745 54.3664 124.711 54.3664C124.677 54.3664 124.564 54.255 124.451 54.1188C124.337 53.9827 124.269 53.8713 124.303 53.8713C124.337 53.8713 124.451 53.9827 124.564 54.1188ZM125.867 55.0596C125.867 55.0843 125.764 55.0596 125.64 54.9853C125.515 54.911 125.413 54.8244 125.413 54.7872C125.413 54.7625 125.515 54.7872 125.64 54.8615C125.764 54.9357 125.867 55.0224 125.867 55.0596ZM58.2764 55.9507C58.2423 55.9879 58.1517 55.9507 58.0724 55.8641C57.9704 55.7403 57.9817 55.7279 58.1404 55.8022C58.2537 55.8394 58.3103 55.9136 58.2764 55.9507ZM59.2394 56.285C59.4321 56.3963 59.5794 56.5077 59.5794 56.5448C59.5794 56.5944 58.9109 56.2602 58.7976 56.1488C58.6843 56.0373 58.9449 56.1117 59.2394 56.285ZM58.2197 56.4087C58.4123 56.5201 58.5596 56.6315 58.5596 56.6687C58.5596 56.7181 57.8911 56.3839 57.7778 56.2725C57.6645 56.1612 57.9251 56.2354 58.2197 56.4087Z" fill="white"/>
</mask>
<g mask="url(#mask0_9_8)">
<path d="M122.059 22.7044C121.368 22.8777 119.884 23.1624 119.238 23.2367C118.377 23.3357 116.144 23.8679 115.328 24.165C114.774 24.363 112.043 25.0685 109.833 25.576C109.403 25.6751 108.575 25.8731 107.997 26.0093C105.55 26.6157 102.514 26.9128 98.7282 26.9252C95.8167 26.9252 94.6837 26.8138 93.346 26.393C92.938 26.2692 92.3039 26.0959 91.9298 26.0216C91.2048 25.8607 90.0826 25.2789 89.7655 24.8952C89.5161 24.5858 89.6862 24.5981 90.1164 24.9076C90.5359 25.2047 91.5335 25.2542 91.5335 24.9695C91.5335 24.8829 91.4649 24.7467 91.3856 24.6972C91.2957 24.6477 91.0801 24.3012 90.91 23.9421C90.4344 22.9767 90.1396 22.7663 89.4368 22.853C89.1313 22.9025 88.4398 22.9891 87.9073 23.051C86.3663 23.2614 84.6893 23.4223 82.9782 23.5337C82.1057 23.5832 81.2106 23.6946 80.9953 23.7813C80.78 23.8556 79.3296 24.0041 77.766 24.1154C75.5677 24.264 74.8311 24.2764 74.4685 24.165C74.1513 24.066 73.9246 24.0536 73.7887 24.1402C73.3808 24.3754 72.5649 24.4249 71.9643 24.2516C71.4998 24.1154 70.8879 24.1031 68.9049 24.1897C67.4432 24.2516 65.245 24.2392 63.4886 24.165C60.1119 24.0288 59.7721 23.9917 57.1432 23.6698C56.0894 23.5461 54.3784 23.3852 53.3473 23.3233C51.353 23.1996 51.0584 23.249 50.7185 23.7813C50.6165 23.9298 50.4012 24.0412 50.1179 24.066C49.7553 24.0907 49.6533 24.165 49.5626 24.4249C49.4153 24.8829 49.5626 25.4028 49.8347 25.4028C50.4125 25.4028 50.1292 25.8483 49.2341 26.3559C47.5798 27.2594 45.9594 27.544 42.4128 27.544C37.5969 27.5317 33.5404 26.888 29.4952 25.5018C28.872 25.2789 28.2827 25.0933 28.1922 25.0809C28.1015 25.0685 27.331 24.8333 26.4924 24.561C23.9656 23.7442 21.4727 23.2242 21.0309 23.41C20.623 23.5832 20.1584 24.4002 20.0677 25.1304C20.0337 25.4522 19.8864 25.9721 19.7391 26.2815C19.1159 27.6555 17.1782 29.574 15.3313 30.6632C13.9942 31.4306 13.6429 32.0124 14.0849 32.656C14.1982 32.817 14.2435 33.2006 14.2548 33.8566C14.2548 35.0449 14.3681 35.3048 14.8667 35.3048C15.15 35.3048 15.2633 35.3791 15.3653 35.6142C15.5579 36.0598 15.9772 36.0227 16.3284 35.54C16.5097 35.2925 16.657 35.1811 16.7477 35.243C16.8269 35.2925 17.0876 35.8 17.3255 36.3569C17.7335 37.31 17.9487 38.3003 18.1527 40.1569C18.2207 40.8377 18.1867 40.8624 17.4049 40.5777C17.1329 40.4787 16.7137 40.3549 16.4644 40.3177C15.4332 40.1198 12.6912 38.4364 11.422 37.211C10.9575 36.7654 10.3229 36.2579 10.0056 36.1094C8.54391 35.3791 8.50991 35.3667 6.82157 35.3667H5.22388L4.11343 35.9608C2.96898 36.5921 2.43642 37.0872 1.5186 38.3993C1.25798 38.7705 0.92938 39.2904 0.793405 39.5504C0.204185 40.652 -0.158412 43.4369 0.0682111 45.1079C0.204185 46.061 0.680094 47.4349 1.06535 48.0043C1.21266 48.2147 1.39396 48.5489 1.45061 48.747C1.59791 49.2049 2.96898 50.5665 3.49022 50.7645C3.70551 50.8388 4.0681 51.0492 4.2834 51.2101C4.67999 51.5071 5.20122 51.6928 6.31168 51.9033C6.65161 51.9652 6.96888 52.0518 7.02553 52.0889C7.12751 52.1632 9.63172 52.3365 12.1019 52.4479C14.2548 52.5469 16.2831 52.8192 18.1641 53.24C21.5408 54.0074 22.4925 54.3664 25.9825 56.2231C27.1043 56.8172 28.3055 57.3741 28.6567 57.4608C29.0873 57.5598 29.8691 57.597 31.0929 57.5598C32.8606 57.4979 33.4725 57.3866 36.124 56.6562C37.7556 56.2106 39.4439 55.8765 41.4496 55.6042C41.9821 55.5299 43.2285 55.3442 44.2257 55.1957C46.4806 54.8615 48.8715 54.8367 50.945 55.1338C53.1773 55.4556 55.6362 56.1983 57.2566 57.0152L58.0497 57.4237L59.0129 57.2628C59.5454 57.1762 60.5426 57.04 61.2224 56.9657C61.9137 56.8791 62.8768 56.7429 63.3753 56.6439C66.0609 56.1488 70.5933 55.7403 74.0606 55.6784C75.5337 55.6536 76.9387 55.5917 77.1654 55.5423C77.4826 55.4804 77.6299 55.5051 77.7773 55.6661C77.8905 55.7775 78.0379 55.8269 78.1512 55.7898C78.7064 55.5423 83.5334 55.5299 89.0404 55.765C90.2981 55.8269 94.9554 56.3221 96.066 56.5201C98.3319 56.9285 98.8761 57.0028 99.1477 56.9285C99.2947 56.8791 99.8166 56.5201 100.281 56.1117C101.278 55.2452 101.742 54.9853 103.068 54.4778C105.063 53.7104 106.003 53.5124 108.36 53.3638C110.898 53.2029 113.969 53.4257 115.726 53.896C115.974 53.958 116.496 54.0817 116.881 54.1807C117.277 54.2674 117.708 54.4159 117.845 54.5149C117.992 54.614 118.875 54.9605 119.805 55.2947C120.745 55.6165 122.071 56.124 122.75 56.4087C123.441 56.7058 124.314 56.9781 124.699 57.0276L125.413 57.1143L125.64 56.681C125.776 56.4458 125.991 56.2106 126.138 56.1735C126.535 56.0621 126.988 55.6289 127.227 55.0967C127.465 54.6016 128.507 53.401 129.39 52.6212C130.048 52.0271 131.033 51.5319 131.804 51.3957C132.529 51.272 132.733 51.1606 133.119 50.715C133.549 50.2199 133.493 49.4401 132.972 48.4623C132.427 47.4597 132.212 46.4324 132.19 44.5633C132.166 42.5953 132.529 40.5654 132.982 40.1569C133.232 39.9465 133.356 39.9712 133.265 40.2064C133.221 40.3549 133.425 40.6644 133.98 41.2461C135.384 42.7438 135.861 43.3627 136.065 43.9444C136.665 45.6154 136.869 46.0362 137.594 47.0884C138.308 48.1157 138.489 48.289 139.226 48.6975C140.246 49.2792 140.926 49.3163 141.99 48.8583C142.614 48.586 142.784 48.4252 143.317 47.6701C143.657 47.1874 144.053 46.5809 144.2 46.3333C145.073 44.7985 145.265 41.3947 144.608 39.34C144.404 38.7211 143.475 37.0006 143.192 36.7159C143.079 36.6045 142.976 36.4436 142.976 36.3569C142.976 36.2331 141.606 34.785 140.314 33.5472C139.34 32.6065 136.688 29.5616 136.257 28.8685C136.156 28.6952 135.827 28.1629 135.532 27.6926C135.237 27.2099 134.875 26.7271 134.728 26.591C134.58 26.4672 134.263 25.8978 134.014 25.3408C133.617 24.4125 133.515 24.2764 132.869 23.8184C132.235 23.3604 131.679 23.15 130.75 22.9891C130.592 22.9644 130.251 22.8653 130.002 22.7911C129.504 22.6178 122.66 22.5435 122.059 22.7044ZM123.94 23.1748C123.94 23.249 123.532 23.2986 122.954 23.2986C121.742 23.2986 119.51 23.5832 118.049 23.9421C116.983 24.1897 115.714 24.6106 115.499 24.7839C115.158 25.0437 109.437 26.4053 106.831 26.8386C101.142 27.7916 95.9075 27.7792 92.3261 26.8138C90.4798 26.3063 88.7571 25.0191 88.4739 23.9421C88.3265 23.3233 88.4285 23.2861 88.6438 23.8927C88.9384 24.6848 90.3097 25.8236 91.5219 26.2939C94.0033 27.2346 99.5102 27.6431 103.261 27.148C107.861 26.5415 114.003 25.2418 115.657 24.5239C116.665 24.0783 119.011 23.4223 119.601 23.41C119.839 23.41 120.439 23.3357 120.938 23.249C122.059 23.051 123.94 23.0015 123.94 23.1748ZM130.286 23.5461C130.376 23.608 130.41 23.6698 130.342 23.6698C130.286 23.6698 130.15 23.608 130.059 23.5461C129.968 23.4842 129.946 23.4223 130.002 23.4223C130.071 23.4223 130.195 23.4842 130.286 23.5461ZM52.5541 23.7813C52.5541 23.8431 52.5881 23.9793 52.6221 24.0907C52.6561 24.2021 52.6334 24.2887 52.5654 24.2887C52.4975 24.2887 52.4408 24.2021 52.4408 24.1031C52.4408 24.0041 52.3841 23.9175 52.3161 23.9175C52.2595 23.9175 52.2369 23.8556 52.2708 23.7936C52.3615 23.6327 52.5541 23.6327 52.5541 23.7813ZM53.098 24.0164C53.166 24.2392 52.928 24.1897 52.8488 23.9669C52.8034 23.8431 52.8374 23.7936 52.9167 23.8184C52.9847 23.8431 53.0753 23.9421 53.098 24.0164ZM56.8033 24.1031C62.3782 24.6106 71.2845 24.8086 75.8963 24.5239C77.1087 24.4373 79.205 24.363 80.5421 24.3383C81.8791 24.3135 83.2049 24.2764 83.4655 24.264C83.8394 24.2392 83.9867 24.2887 84.0661 24.4496C84.134 24.561 84.2586 24.6601 84.3606 24.6601C84.5079 24.6601 84.5193 24.6972 84.4173 24.8086C84.3153 24.92 84.236 24.8952 84.0433 24.722C83.896 24.561 83.6468 24.4868 83.3409 24.4868C81.8451 24.4992 76.8935 24.6725 75.0464 24.7715C70.7972 25.0191 64.8597 24.9076 58.8429 24.4744C55.0809 24.2021 53.234 24.0041 53.234 23.8803C53.234 23.806 53.5512 23.7936 54.0045 23.8308C54.4237 23.8803 55.6815 23.9917 56.8033 24.1031ZM86.9215 24.2887C87.0235 24.4868 87.0574 24.6848 87.0008 24.722C86.8875 24.7962 86.5362 24.0907 86.6382 23.9917C86.7289 23.8803 86.7515 23.8927 86.9215 24.2887ZM84.9612 24.2887C84.9612 24.4249 85.0405 24.5363 85.1312 24.5363C85.2218 24.5363 85.3011 24.5858 85.3011 24.6601C85.3011 24.722 85.1992 24.7839 85.0745 24.7839C84.9499 24.7839 84.8479 24.7096 84.8479 24.6106C84.8479 24.5116 84.8139 24.3506 84.7799 24.2392C84.7459 24.1279 84.7685 24.0412 84.8366 24.0412C84.9045 24.0412 84.9612 24.1526 84.9612 24.2887ZM85.811 24.5363L85.879 24.8458L85.6524 24.5363C85.5277 24.3754 85.4598 24.1897 85.4938 24.1279C85.5731 23.9793 85.7091 24.165 85.811 24.5363ZM86.4455 24.6106C86.4909 24.8086 86.5588 25.0809 86.6156 25.2171C86.6948 25.4399 86.6835 25.4399 86.5136 25.2914C86.4116 25.2047 86.3209 24.9695 86.3209 24.7715C86.3209 24.5735 86.2756 24.4125 86.2077 24.4125C86.1509 24.4125 86.0943 24.3506 86.0943 24.2764C86.0943 24.0041 86.3776 24.264 86.4455 24.6106ZM87.9073 24.5982C88.0093 24.5363 88.0319 24.5487 87.9753 24.6353C87.8507 24.8581 87.522 24.8086 87.3747 24.5487C87.1821 24.2145 87.3521 24.1031 87.5787 24.4249C87.692 24.5981 87.8166 24.6601 87.9073 24.5982ZM132.099 24.6601C132.19 24.722 132.223 24.7839 132.156 24.7839C132.099 24.7839 131.962 24.722 131.872 24.6601C131.782 24.5982 131.758 24.5363 131.815 24.5363C131.883 24.5363 132.008 24.5982 132.099 24.6601ZM25.3254 25.1799C25.654 25.3285 25.9259 25.4893 25.9259 25.5512C25.9259 25.7122 25.6766 25.6626 25.144 25.4028C24.8721 25.2666 24.5888 25.1552 24.4981 25.1552C24.4189 25.1552 24.3169 25.0933 24.2829 25.0314C24.1583 24.821 24.7021 24.8952 25.3254 25.1799ZM132.212 25.3408C132.212 25.4399 132.303 25.576 132.416 25.6379C132.518 25.7122 132.552 25.7741 132.473 25.7741C132.405 25.7741 132.257 25.6503 132.166 25.5018C131.962 25.1923 131.929 24.9819 132.099 25.0933C132.166 25.1304 132.212 25.2418 132.212 25.3408ZM27.8975 25.8236C29.4499 26.3682 29.8691 26.5044 30.2091 26.5786C30.4017 26.6282 30.5717 26.7148 30.5717 26.7767C30.5717 26.9376 29.9258 26.8014 28.9287 26.4424C28.4981 26.2939 27.7275 26.0464 27.2403 25.9103C26.7417 25.7617 26.3112 25.6132 26.2771 25.576C26.1752 25.4522 27.3536 25.6379 27.8975 25.8236ZM22.2093 25.7864C23.0591 25.9349 23.7503 26.1949 23.5917 26.3063C23.5351 26.3434 23.2291 26.2939 22.9005 26.2073C22.5832 26.1207 22.0393 26.0093 21.688 25.9597C21.3368 25.9103 21.0535 25.8236 21.0535 25.7617C21.0535 25.6132 21.2348 25.6255 22.2093 25.7864ZM133.481 25.9721C133.855 26.1826 134.241 26.6157 134.251 26.8261C134.251 26.888 134.116 26.7643 133.946 26.5538C133.764 26.3434 133.481 26.0835 133.289 25.9721C133.107 25.8731 132.994 25.7864 133.039 25.7741C133.085 25.7741 133.289 25.8607 133.481 25.9721ZM26.3791 26.0216C26.5151 26.1207 26.4811 26.1454 26.2318 26.1454C26.0506 26.1454 25.9372 26.0959 25.9825 26.0216C26.0732 25.8731 26.1639 25.8731 26.3791 26.0216ZM51.2624 26.3434C51.0131 26.591 50.8545 26.6405 50.6052 26.591C50.3785 26.5415 50.1066 26.6157 49.744 26.8138C49.0641 27.1975 47.897 27.5688 46.6052 27.8288C45.2342 28.1011 40.7017 28.2125 38.7641 28.0144C36.0672 27.7421 32.1354 26.9994 30.719 26.5044C30.1071 26.2939 30.2997 26.1578 30.9456 26.3434C32.4866 26.789 35.5914 27.3955 37.5403 27.6431C39.3987 27.8659 40.1238 27.903 42.8659 27.8411C45.2568 27.804 46.2653 27.7298 46.9452 27.5688C48.2596 27.2717 49.3587 26.9004 49.9593 26.5663C50.3332 26.3682 50.5145 26.3187 50.6052 26.4177C50.6958 26.5167 50.8318 26.4796 51.1037 26.2939C51.6136 25.9474 51.6589 25.9721 51.2624 26.3434ZM25.5293 26.3187C25.7219 26.4301 25.7786 26.5167 25.6766 26.5415C25.484 26.6157 25.008 26.3805 25.0874 26.2568C25.1667 26.1207 25.1667 26.1207 25.5293 26.3187ZM21.2801 26.3187C21.2801 26.3559 21.2348 26.4177 21.1668 26.4548C21.1101 26.492 21.0535 26.4672 21.0535 26.4053C21.0535 26.3311 21.1101 26.2692 21.1668 26.2692C21.2348 26.2692 21.2801 26.2939 21.2801 26.3187ZM23.2404 27.0613C23.5464 27.0613 23.467 27.2594 23.1611 27.2594C22.8098 27.2594 22.5266 27.1356 22.5266 26.9871C22.5266 26.9252 22.6399 26.9128 22.7872 26.9623C22.9232 27.0119 23.1271 27.0613 23.2404 27.0613ZM21.3821 27.5193C22.0393 27.7669 22.1527 27.8411 22.0507 27.9525C22.0054 27.9896 21.62 27.8783 21.1668 27.705C20.7249 27.5317 20.2604 27.3832 20.1357 27.3832C20.0224 27.3832 19.9204 27.3213 19.9204 27.2594C19.9204 27.0861 20.5436 27.2099 21.3821 27.5193ZM133.81 27.4698L134.081 27.804L133.81 27.6183C133.651 27.5069 133.504 27.3584 133.481 27.2842C133.413 27.049 133.515 27.1109 133.81 27.4698ZM22.6399 27.5069C22.6399 27.5688 22.5605 27.6307 22.4699 27.6307C22.3793 27.6307 22.2999 27.5688 22.2999 27.5069C22.2999 27.4327 22.3793 27.3832 22.4699 27.3832C22.5605 27.3832 22.6399 27.4327 22.6399 27.5069ZM19.7391 27.6183C19.8297 27.7792 19.7051 27.8535 19.4671 27.7916C19.3425 27.7544 19.2745 27.6802 19.3085 27.6183C19.3878 27.4822 19.6598 27.4698 19.7391 27.6183ZM21.2008 28.0515C21.5408 28.2125 21.858 28.4105 21.892 28.4848C22.0167 28.7075 21.7787 28.6456 21.2348 28.3115C20.9515 28.1382 20.6456 28.0021 20.5549 28.0021C20.4643 28.0021 20.3509 27.9402 20.317 27.8783C20.2036 27.6679 20.5663 27.7421 21.2008 28.0515ZM134.818 27.9402C134.818 28.0392 134.796 28.1258 134.772 28.1258C134.75 28.1258 134.705 28.0392 134.659 27.9402C134.626 27.8411 134.649 27.7544 134.705 27.7544C134.772 27.7544 134.818 27.8411 134.818 27.9402ZM20.7476 28.4848C20.9175 28.5591 21.0535 28.6828 21.0535 28.7571C21.0535 28.8437 20.9741 28.8561 20.8608 28.8066C20.7476 28.7571 20.5096 28.6581 20.317 28.5962C19.8184 28.4105 19.6711 28.2 20.0903 28.2867C20.283 28.3239 20.5663 28.4105 20.7476 28.4848ZM134.739 28.621C134.772 28.7571 134.75 28.8437 134.693 28.7942C134.637 28.7571 134.592 28.6456 134.592 28.5466C134.592 28.2991 134.671 28.3362 134.739 28.621ZM20.0224 28.7695C20.3056 28.918 20.4756 29.0541 20.419 29.0789C20.283 29.1284 19.2406 28.6704 19.2406 28.5591C19.2406 28.4352 19.5238 28.5095 20.0224 28.7695ZM18.0507 29.2274C17.9714 29.376 16.2151 30.6756 15.4559 31.1584C15.15 31.3563 14.9233 31.4554 14.9687 31.3811C15.014 31.3069 15.3653 31.0469 15.7619 30.7994C16.1471 30.5642 16.8269 30.0815 17.2576 29.7473C18.0961 29.0912 18.1641 29.0541 18.0507 29.2274ZM135.725 29.4874C135.815 29.5493 135.849 29.6111 135.782 29.6111C135.725 29.6111 135.588 29.5493 135.498 29.4874C135.408 29.4255 135.384 29.3636 135.441 29.3636C135.509 29.3636 135.634 29.4255 135.725 29.4874ZM140.008 33.869C140.45 34.3394 140.824 34.7726 140.824 34.8221C140.824 34.8717 140.45 34.5126 139.996 34.0299C139.544 33.5349 138.479 32.4208 137.617 31.5421C136.768 30.6632 136.053 29.8834 136.019 29.7844C135.986 29.6978 136.688 30.3909 137.572 31.3317C138.455 32.26 139.554 33.411 140.008 33.869ZM139.294 35.4286C139.328 35.4905 139.305 35.5524 139.249 35.5524C139.18 35.5524 139.124 35.4905 139.124 35.4286C139.124 35.3544 139.147 35.3048 139.17 35.3048C139.204 35.3048 139.26 35.3544 139.294 35.4286ZM141.867 36.3693C142.467 36.7035 143.475 37.6442 143.679 38.0898C143.747 38.2259 143.543 38.028 143.226 37.6442C142.875 37.2234 142.342 36.7778 141.877 36.5054C140.994 35.9856 140.982 35.8866 141.867 36.3693ZM18.9799 44.7366C18.9459 44.8356 18.9119 44.7985 18.9119 44.6623C18.9006 44.5262 18.9346 44.4519 18.9685 44.5014C19.0026 44.5385 19.0139 44.65 18.9799 44.7366ZM18.8666 45.3555C18.8326 45.4545 18.7986 45.4174 18.7986 45.2812C18.7873 45.1451 18.8212 45.0708 18.8553 45.1203C18.8893 45.1574 18.9006 45.2689 18.8666 45.3555ZM131.645 46.2591C131.645 46.3209 131.589 46.2962 131.532 46.1972C131.475 46.0982 131.419 45.9496 131.419 45.8877C131.419 45.8134 131.475 45.8506 131.532 45.9496C131.589 46.0486 131.645 46.1847 131.645 46.2591ZM132.892 49.3287C132.892 49.403 132.665 48.9821 132.382 48.4004C132.099 47.8063 131.872 47.2864 131.872 47.2245C131.872 47.0759 132.892 49.1678 132.892 49.3287ZM17.2009 47.6825C17.2009 47.7444 17.1556 47.8063 17.099 47.8063C17.0309 47.8063 16.9516 47.7444 16.9176 47.6825C16.8837 47.6082 16.9289 47.5587 17.0196 47.5587C17.1216 47.5587 17.2009 47.6082 17.2009 47.6825ZM129.629 50.1456C129.651 50.3561 129.64 50.4922 129.583 50.4551C129.538 50.418 129.493 50.3065 129.493 50.1951C129.493 50.0837 129.402 49.8857 129.3 49.7495C129.107 49.5143 129.107 49.502 129.334 49.6381C129.481 49.7248 129.606 49.9352 129.629 50.1456ZM130.422 50.5293C130.626 50.6655 130.75 50.7769 130.683 50.7769C130.626 50.7769 130.422 50.6655 130.229 50.5293C129.787 50.2075 129.946 50.2075 130.422 50.5293ZM129.968 51.272C130.037 51.272 130.071 51.3092 130.037 51.3463C129.934 51.4453 129.493 51.173 129.493 51.0121C129.493 50.9378 129.572 50.9749 129.674 51.074C129.764 51.1853 129.901 51.272 129.968 51.272ZM17.8241 51.1482C17.7901 51.2101 17.6428 51.3338 17.5069 51.4081C17.2689 51.5319 17.2689 51.5196 17.5295 51.2844C17.8128 50.9997 17.9374 50.9502 17.8241 51.1482ZM18.2774 51.5196C18.2434 51.5814 18.1414 51.6433 18.0734 51.6433C17.9941 51.6433 18.0054 51.5938 18.1074 51.5196C18.3227 51.371 18.3681 51.371 18.2774 51.5196ZM123.498 54.5397C123.714 54.7253 123.77 54.8244 123.645 54.7501C123.306 54.5768 122.807 53.896 122.807 53.6485C122.819 53.5371 122.887 53.6114 122.966 53.8218C123.057 54.0322 123.295 54.354 123.498 54.5397ZM124.564 54.1188C124.677 54.255 124.745 54.3664 124.711 54.3664C124.677 54.3664 124.564 54.255 124.451 54.1188C124.337 53.9827 124.269 53.8713 124.303 53.8713C124.337 53.8713 124.451 53.9827 124.564 54.1188ZM125.867 55.0596C125.867 55.0843 125.764 55.0596 125.64 54.9853C125.515 54.911 125.413 54.8244 125.413 54.7872C125.413 54.7625 125.515 54.7872 125.64 54.8615C125.764 54.9357 125.867 55.0224 125.867 55.0596ZM58.2764 55.9507C58.2423 55.9879 58.1517 55.9507 58.0724 55.8641C57.9704 55.7403 57.9817 55.7279 58.1404 55.8022C58.2537 55.8394 58.3103 55.9136 58.2764 55.9507ZM59.2394 56.285C59.4321 56.3963 59.5794 56.5077 59.5794 56.5448C59.5794 56.5944 58.9109 56.2602 58.7976 56.1488C58.6843 56.0373 58.9449 56.1117 59.2394 56.285ZM58.2197 56.4087C58.4123 56.5201 58.5596 56.6315 58.5596 56.6687C58.5596 56.7181 57.8911 56.3839 57.7778 56.2725C57.6645 56.1612 57.9251 56.2354 58.2197 56.4087Z" fill="#C5C1C1" stroke="black" stroke-width="2"/>
</g>
<path d="M37.1547 37.7798C37.4077 37.8268 37.5847 37.8739 37.6859 37.9209C37.8124 37.9445 37.8883 38.015 37.9136 38.1327L37.2686 38.9796C37.1168 39.0973 36.9144 39.1914 36.6615 39.262C36.4338 39.3325 36.2188 39.3914 36.0165 39.4384C35.4347 39.4855 34.7897 39.5208 34.0814 39.5443C33.3732 39.5678 32.6396 39.6031 31.8808 39.6501C31.1219 39.6737 30.3504 39.6972 29.5663 39.7207C28.8074 39.7443 28.0865 39.7678 27.4036 39.7913C27.4036 40.7794 27.4036 41.697 27.4036 42.5439C27.4289 43.3909 27.4668 44.0732 27.5174 44.5907C28.1498 44.4966 28.8833 44.3437 29.718 44.132C30.5528 43.9202 31.4507 43.6732 32.412 43.3909C33.3732 43.1086 34.3723 42.8027 35.4094 42.4733C36.4465 42.144 37.4583 41.8028 38.4448 41.4499C38.7989 41.3323 39.1277 41.2382 39.4313 41.1676C39.7601 41.0735 40.0889 40.9794 40.4178 40.8853C40.4178 40.9794 40.4051 41.05 40.3798 41.097C40.3545 41.1206 40.3166 41.1559 40.266 41.2029C40.1901 41.3911 40.0763 41.5558 39.9245 41.697C39.7728 41.8146 39.621 41.9205 39.4692 42.0146C39.3427 42.1087 39.2289 42.191 39.1277 42.2616C39.0013 42.3557 38.8874 42.4969 38.7863 42.6851C38.7104 42.8733 38.5333 43.0497 38.2551 43.2144C36.6109 44.1555 34.9541 44.9319 33.2846 45.5436C31.6152 46.1553 29.8445 46.7081 27.9727 47.2022C27.5427 47.3198 27.2012 47.3316 26.9483 47.2375C26.6953 47.1669 26.4803 46.9552 26.3032 46.6023C26.2527 46.4141 26.1894 46.2611 26.1135 46.1435C26.0376 46.0259 25.8606 45.8729 25.5823 45.6847C25.4559 45.5906 25.3926 45.4377 25.3926 45.226C25.3926 44.9907 25.38 44.7437 25.3547 44.4849C25.3041 43.9202 25.2662 43.238 25.2409 42.4381C25.2409 41.6146 25.2535 40.7441 25.2788 39.8266H24.2923C24.0647 39.8031 23.9002 39.7795 23.7991 39.756C23.6979 39.709 23.5461 39.5913 23.3438 39.4031C23.3438 39.2384 23.3817 39.1326 23.4576 39.0855C23.5588 39.0385 23.6473 38.9679 23.7232 38.8738C23.7991 38.7797 23.8623 38.6738 23.9129 38.5562C23.9888 38.4385 24.0899 38.3562 24.2164 38.3091C24.3429 38.2856 24.4947 38.2621 24.6717 38.2386C24.8741 38.215 25.1017 38.1797 25.3547 38.1327C25.4053 37.2622 25.4432 36.3917 25.4685 35.5212C25.5191 34.6507 25.5697 33.8391 25.6203 33.0862H25.0891C24.7856 33.0862 24.5706 33.0627 24.4441 33.0156C24.3429 32.9451 24.267 32.8862 24.2164 32.8392C24.1658 32.7686 24.1279 32.7098 24.1026 32.6627C24.0773 32.5922 24.0014 32.5451 23.8749 32.5216C23.6726 32.4981 23.5714 32.4628 23.5714 32.4157C23.5714 32.3687 23.5208 32.3216 23.4196 32.2746C23.3185 32.204 23.3564 32.1216 23.5335 32.0275C23.7358 31.9334 23.9382 31.7452 24.1405 31.4629C24.3176 31.2982 24.4188 31.1688 24.4441 31.0747C24.4947 30.9806 24.6591 30.8747 24.9373 30.7571C25.1903 30.6394 25.6709 30.5689 26.3791 30.5453C27.0874 30.5218 27.8842 30.5336 28.7695 30.5806C29.6548 30.6042 30.5528 30.663 31.4634 30.7571C32.3993 30.8277 33.1961 30.9218 33.8538 31.0394C34.2585 31.1335 34.6253 31.2511 34.9541 31.3923C35.2829 31.5099 35.5991 31.6746 35.9026 31.8864C35.9026 31.9569 35.8394 32.004 35.7129 32.0275C35.6117 32.0275 35.5359 32.051 35.4853 32.0981C35.3841 32.1687 35.2829 32.2275 35.1817 32.2746C35.0806 32.2981 34.992 32.3334 34.9161 32.3804C34.815 32.4275 34.7138 32.4628 34.6126 32.4863C34.2079 32.6039 33.7779 32.7098 33.3226 32.8039C32.8926 32.8745 32.3993 32.9333 31.8428 32.9803C31.3116 33.0274 30.6793 33.0627 29.9457 33.0862C29.2374 33.0862 28.4154 33.0862 27.4795 33.0862C27.4542 33.7685 27.4289 34.5213 27.4036 35.3448C27.4036 36.1682 27.4036 37.0152 27.4036 37.8857C28.6177 37.768 29.9584 37.6739 31.4255 37.6033C32.9178 37.5092 34.3091 37.4504 35.5991 37.4269C35.8773 37.4269 36.1429 37.4857 36.3959 37.6033C36.6488 37.721 36.9018 37.7798 37.1547 37.7798ZM43.7172 41.5911C44.1472 41.1911 44.5773 40.7677 45.0073 40.3207C45.4626 39.8501 45.9305 39.4031 46.4111 38.9796C46.8917 38.5562 47.385 38.1797 47.8909 37.8504C48.3968 37.4975 48.928 37.2151 49.4845 37.0034C49.6109 36.9563 49.7248 36.9446 49.8259 36.9681C49.9524 36.9916 50.0789 36.9799 50.2054 36.9328C50.4077 36.9328 50.5848 36.9328 50.7365 36.9328C50.8883 36.9328 51.0274 36.9799 51.1539 37.074C51.508 37.2857 51.7863 37.5916 51.9886 37.9915C52.2163 38.3679 52.406 38.7914 52.5578 39.262C52.659 39.5208 52.7095 39.7678 52.7095 40.003C52.7348 40.2383 52.8107 40.5089 52.9372 40.8147C53.089 41.2617 53.2534 41.7205 53.4305 42.191C53.6328 42.638 53.7087 43.0733 53.6581 43.4968C53.6328 43.6144 53.5949 43.7203 53.5443 43.8144C53.4937 43.8849 53.4305 43.979 53.3546 44.0967C53.304 44.1908 53.2154 44.3084 53.089 44.4496C52.9625 44.5907 52.836 44.6966 52.7095 44.7672C52.5831 44.8613 52.4945 44.9436 52.4439 45.0142C52.4187 45.0613 52.3048 45.1201 52.1025 45.1907C51.7736 44.7437 51.5207 44.2614 51.3436 43.7438C51.1666 43.2262 51.0148 42.6851 50.8883 42.1204C50.7618 41.5558 50.648 40.9794 50.5468 40.3912C50.4457 39.8031 50.3192 39.2031 50.1674 38.5915C50.1168 38.4268 49.9524 38.3327 49.6742 38.3091C49.4212 38.2856 49.1177 38.3679 48.7636 38.5562C48.4347 38.7208 48.0806 38.9914 47.7012 39.3678C47.3217 39.7443 46.9803 40.2266 46.6767 40.8147C46.4744 41.2382 46.2847 41.6852 46.1076 42.1557C45.9305 42.6027 45.7282 43.0615 45.5005 43.532C45.2982 43.9791 45.0452 44.4261 44.7417 44.8731C44.4634 45.2965 44.1219 45.6847 43.7172 46.0376C43.5908 46.1553 43.5022 46.167 43.4516 46.0729C43.401 45.9788 43.2746 45.8965 43.0722 45.8259C42.9204 45.7788 42.8319 45.7318 42.8066 45.6847C42.8066 45.6377 42.7687 45.4965 42.6928 45.2612C42.541 44.7672 42.3766 44.2025 42.1995 43.5673C42.0478 42.9321 41.8707 42.2616 41.6683 41.5558C41.4913 40.85 41.3016 40.1442 41.0992 39.4384C40.8969 38.7091 40.6945 38.0268 40.4921 37.3916L40.2645 36.7564C40.3151 36.6623 40.4036 36.5799 40.5301 36.5093C40.6818 36.4388 40.8336 36.3799 40.9854 36.3329C41.1372 36.2858 41.3016 36.2976 41.4786 36.3682C41.6557 36.4388 41.7948 36.4741 41.896 36.4741C42.1742 36.4741 42.4145 36.6387 42.6169 36.9681C42.8446 37.2975 43.0343 37.721 43.186 38.2386C43.3378 38.7326 43.4516 39.2855 43.5275 39.8972C43.6287 40.4853 43.6919 41.05 43.7172 41.5911ZM60.957 34.7801C60.4764 34.9213 59.9958 35.0625 59.5152 35.2036C59.0346 35.3448 58.5666 35.4389 58.1113 35.4859C57.6813 35.5095 57.264 35.4742 56.8592 35.3801C56.4798 35.286 56.1257 35.086 55.7969 34.7801C55.7969 34.4743 55.8221 34.2037 55.8727 33.9685C55.9233 33.7097 56.113 33.5803 56.4419 33.5803C56.9225 33.4391 57.3904 33.3685 57.8457 33.3685C58.3263 33.345 58.769 33.3921 59.1737 33.5097C59.5784 33.6273 59.9326 33.792 60.2361 34.0038C60.5649 34.2155 60.8052 34.4743 60.957 34.7801ZM62.8921 49.1784C62.9174 50.2371 62.6138 51.19 61.9814 52.0369C61.3744 52.9074 60.6155 53.5661 59.7049 54.0132C58.8196 54.4837 57.8963 54.6837 56.9351 54.6131C55.9739 54.566 55.1645 54.1543 54.5068 53.3779C54.4562 53.3309 54.4309 53.2838 54.4309 53.2368C54.4309 53.1897 54.4183 53.1427 54.393 53.0956C54.3424 53.0015 54.3045 52.9192 54.2792 52.8486C54.2286 52.8015 54.2159 52.7545 54.2412 52.7074L54.5068 52.778C55.4427 52.9662 56.3027 53.0368 57.0869 52.9897C57.871 52.9427 58.5413 52.7545 59.0978 52.4251C59.6796 52.1193 60.1349 51.6487 60.4638 51.0135C60.7926 50.4018 60.957 49.5901 60.957 48.5785C60.957 47.0728 60.7673 45.473 60.3879 43.7791C60.0084 42.0852 59.3381 40.4853 58.3769 38.9796C58.2757 38.8385 58.2378 38.7444 58.2631 38.6973C58.2884 38.6267 58.339 38.5797 58.4149 38.5562C58.4908 38.5091 58.5666 38.4738 58.6425 38.4503C58.7437 38.4268 58.8196 38.4032 58.8702 38.3797C58.9966 38.3091 59.1231 38.3209 59.2496 38.415C59.3761 38.5091 59.5025 38.5797 59.629 38.6267C59.8061 38.6973 59.9326 38.7444 60.0084 38.7679C60.0843 38.7914 60.1855 38.862 60.312 38.9796C61.1214 39.5913 61.7411 40.3207 62.1712 41.1676C62.6012 42.0146 62.8921 42.9086 63.0438 43.8497C63.2209 44.7907 63.2715 45.72 63.1956 46.6376C63.145 47.5786 63.0438 48.4256 62.8921 49.1784ZM70.1707 36.1917L69.5257 36.7917C69.7281 36.7681 70.0316 36.7211 70.4363 36.6505C70.8663 36.5564 71.2837 36.5093 71.6884 36.5093C71.992 36.5564 72.2449 36.6505 72.4473 36.7917C72.6496 36.9328 72.7761 37.2034 72.8267 37.6033C72.9279 38.168 73.0796 38.7444 73.282 39.3325C73.5097 39.8972 73.6741 40.4618 73.7752 41.0265C73.9017 41.5911 73.9017 42.1322 73.7752 42.6498C73.6488 43.1439 73.3073 43.5909 72.7508 43.9908C72.169 44.8142 71.524 45.5083 70.8158 46.0729C70.1328 46.614 69.4119 46.9316 68.653 47.0257C68.1471 47.0963 67.5907 47.0257 66.9836 46.814C66.3765 46.6258 65.9338 46.2847 65.6556 45.7906C65.5797 45.8377 65.5165 45.8494 65.4659 45.8259C65.4153 45.7788 65.3647 45.7318 65.3141 45.6847C65.2635 45.6377 65.2129 45.6259 65.1624 45.6494C65.1371 45.673 65.1118 45.6612 65.0865 45.6141C65.0612 45.5436 65.0485 45.4495 65.0485 45.3318V45.2612V45.1907C65.0738 44.3672 65.1497 43.5438 65.2762 42.7204C65.428 41.8734 65.643 41.0617 65.9212 40.2854C66.2247 39.4855 66.6042 38.7444 67.0595 38.0621C67.5401 37.3563 68.1471 36.7328 68.8807 36.1917C69.1336 36.0506 69.4119 36.0035 69.7154 36.0506C69.766 36.0506 69.8293 36.0506 69.9051 36.0506C69.981 36.0506 70.0696 36.0976 70.1707 36.1917ZM68.8807 38.5915C68.7289 38.5679 68.6404 38.5209 68.6151 38.4503C68.5898 38.3797 68.5898 38.2974 68.6151 38.2033C68.6657 38.0856 68.7163 37.9562 68.7669 37.8151C68.8428 37.6739 68.8807 37.5328 68.8807 37.3916C68.3495 37.8386 67.9321 38.3797 67.6286 39.0149C67.3504 39.6501 67.148 40.3089 67.0215 40.9912C66.8951 41.6499 66.8318 42.2969 66.8318 42.9321C66.8571 43.5673 66.8951 44.1202 66.9456 44.5907C66.9962 44.9907 67.0848 45.3201 67.2112 45.5789C67.3377 45.8141 67.5274 45.9553 67.7804 46.0023C68.0586 46.0729 68.4254 46.0023 68.8807 45.7906C69.5384 45.4848 70.0696 45.0613 70.4743 44.5202C70.879 43.979 71.2078 43.4026 71.4608 42.791C71.562 42.4616 71.6378 42.0734 71.6884 41.6264C71.7643 41.1559 71.7517 40.7206 71.6505 40.3207C71.524 39.7795 71.1952 39.3914 70.664 39.1561C70.1581 38.8973 69.5637 38.7091 68.8807 38.5915ZM84.3247 50.6959C84.2488 50.9782 84.1729 51.2135 84.0971 51.4017C84.0212 51.6134 83.9453 51.8017 83.8694 51.9663C83.7935 52.131 83.705 52.2839 83.6038 52.4251C83.5026 52.5663 83.3888 52.7427 83.2623 52.9545C83.1359 53.0486 82.9967 53.225 82.845 53.4838C82.7185 53.7661 82.5288 53.9543 82.2758 54.0484C81.5929 54.3072 80.8214 54.5307 79.9614 54.719C79.1266 54.9072 78.431 54.966 77.8745 54.8954C77.8239 54.8719 77.7607 54.8601 77.6848 54.8601C77.6342 54.8836 77.5963 54.8719 77.571 54.8248C77.4445 54.5896 77.4698 54.3896 77.6469 54.2249C77.8492 54.0837 77.9757 53.919 78.0263 53.7308C78.0769 53.6132 78.1275 53.472 78.1781 53.3074C78.2287 53.1662 78.3172 53.0486 78.4437 52.9545C78.6966 52.8368 79.0634 52.7192 79.544 52.6016C80.0246 52.5075 80.4925 52.3663 80.9479 52.1781C81.4285 51.9899 81.8585 51.7311 82.2379 51.4017C82.6426 51.0959 82.9082 50.6606 83.0347 50.096C83.1864 49.3666 83.3129 48.5667 83.4141 47.6963C83.5153 46.8258 83.5912 45.9435 83.6418 45.0495C83.7176 44.1555 83.7682 43.2732 83.7935 42.4028C83.8441 41.5323 83.8821 40.7206 83.9074 39.9678C83.7556 40.2501 83.5406 40.5795 83.2623 40.9559C82.9841 41.3088 82.6805 41.6617 82.3517 42.0146C82.0229 42.3675 81.694 42.6851 81.3652 42.9674C81.0364 43.2497 80.7328 43.4615 80.4546 43.6026C80.1258 43.7673 79.8602 43.932 79.6578 44.0967C79.4555 44.2378 79.2531 44.3908 79.0507 44.5555C78.899 44.6731 78.6966 44.6731 78.4437 44.5555C78.1907 44.4378 77.9631 44.2261 77.7607 43.9202C77.5331 43.5438 77.318 43.085 77.1157 42.5439C76.9133 41.9793 76.711 41.3911 76.5086 40.7794C76.3063 40.1442 76.1039 39.4972 75.9015 38.8385C75.6992 38.1562 75.4968 37.5092 75.2945 36.8975C75.1174 36.4505 75.13 36.1329 75.3324 35.9447C75.5095 35.78 75.7118 35.6977 75.9395 35.6977C76.1418 35.6977 76.2557 35.7565 76.281 35.8741C76.3315 35.9682 76.458 36.027 76.6604 36.0506C76.8374 36.0741 76.9639 36.1329 77.0398 36.227C77.141 36.3211 77.2548 36.4035 77.3813 36.4741C77.533 36.5682 77.6342 36.6623 77.6848 36.7564C77.7607 36.8505 77.8366 37.0152 77.9125 37.2504C78.0389 37.6974 78.1401 38.1209 78.216 38.5209C78.3172 38.8973 78.4057 39.2737 78.4816 39.6501C78.5828 40.0266 78.684 40.4148 78.7851 40.8147C78.9116 41.1911 79.0507 41.6029 79.2025 42.0499C79.8855 41.6264 80.4799 41.1676 80.9858 40.6736C81.517 40.156 81.9849 39.6384 82.3897 39.1208C82.8197 38.5797 83.1991 38.0621 83.5279 37.568C83.8568 37.0505 84.1603 36.5564 84.4385 36.0859C84.5397 35.9447 84.6662 35.7447 84.818 35.4859C84.9697 35.2271 85.1089 35.0389 85.2353 34.9213C85.3112 34.8507 85.3745 34.7801 85.425 34.7096C85.4756 34.6154 85.5389 34.5449 85.6147 34.4978C85.7159 34.5919 85.7792 34.6978 85.8045 34.8154C85.8298 34.9331 85.8551 35.0625 85.8803 35.2036C85.9309 35.6036 85.893 36.0388 85.7665 36.5093C85.6653 36.9563 85.6147 37.2857 85.6147 37.4975C85.6147 38.5562 85.6147 39.6384 85.6147 40.7441C85.6147 41.8499 85.5768 42.9556 85.5009 44.0614C85.425 45.1671 85.2986 46.2729 85.1215 47.3786C84.9444 48.5079 84.6788 49.6137 84.3247 50.6959ZM106.221 47.5904C106.068 47.4492 105.968 47.2963 105.917 47.1316C105.866 46.9905 105.765 46.7905 105.613 46.5317C105.436 46.2729 105.36 46.0023 105.386 45.72C105.411 45.4142 105.373 45.073 105.272 44.6966C105.221 44.4849 105.12 44.2614 104.968 44.0261C104.817 43.7908 104.74 43.5791 104.74 43.3909C104.69 41.8852 104.64 40.4383 104.589 39.0502C104.538 37.6386 104.45 36.0859 104.323 34.3919C103.944 34.7448 103.539 35.1566 103.109 35.6271C102.704 36.0741 102.312 36.5446 101.933 37.0387C101.553 37.5328 101.199 38.0268 100.87 38.5209C100.542 38.9914 100.264 39.4384 100.036 39.8619C99.8843 40.1442 99.6946 40.3795 99.4666 40.5677C99.2644 40.7324 99.0622 40.8853 98.8592 41.0265C98.7327 41.1206 98.6321 41.2147 98.5564 41.3088C98.5056 41.4029 98.4165 41.4264 98.2901 41.3794C97.4813 41.1441 96.7599 40.7088 96.1275 40.0736C95.4951 39.4384 94.8886 38.7914 94.3061 38.1327C93.7245 37.4739 93.1304 36.8858 92.523 36.3682C91.9165 35.8271 91.2458 35.533 90.5119 35.4859C90.4869 36.1682 90.4745 36.9211 90.4745 37.7445C90.4994 38.5679 90.5252 39.4149 90.5502 40.2854C90.5751 41.1559 90.601 42.0263 90.6259 42.8968C90.6517 43.7438 90.6891 44.5319 90.7399 45.2612V46.9905C90.462 46.6846 90.2723 46.4023 90.1708 46.1435C90.0692 45.8612 89.9427 45.5436 89.7913 45.1907C89.6898 45.0025 89.5509 44.779 89.3736 44.5202C89.1973 44.2378 89.0833 43.9908 89.0325 43.7791C88.7795 42.9086 88.6025 41.9558 88.5013 40.9206C88.4001 39.8619 88.3495 38.8267 88.3495 37.8151C88.3495 36.7799 88.3748 35.8035 88.4254 34.886C88.476 33.9685 88.5266 33.2039 88.5772 32.5922C88.6025 32.4745 88.6404 32.3804 88.691 32.3098C88.7669 32.2157 88.8681 32.1687 88.9945 32.1687C89.0957 32.1687 89.1714 32.1452 89.2222 32.0981C89.273 32.051 89.3487 32.0158 89.4502 31.9922C89.6266 31.9922 89.7406 32.0863 89.7913 32.2746C89.867 32.4628 90.006 32.7216 90.2091 33.0509C90.3355 33.3097 90.4112 33.4744 90.4362 33.545C90.462 33.6156 90.4994 33.7567 90.5502 33.9685C91.2583 34.0155 91.9414 34.2273 92.5987 34.6037C93.2819 34.9801 93.9018 35.4389 94.4584 35.98C95.04 36.5211 95.5584 37.0857 96.0135 37.6739C96.4945 38.2621 96.8864 38.7679 97.1901 39.1914C97.6452 38.5091 98.1386 37.8386 98.6695 37.1799C99.2261 36.5211 99.7953 35.8977 100.377 35.3095C100.959 34.6978 101.529 34.1449 102.084 33.6509C102.667 33.1333 103.185 32.6745 103.64 32.2746L104.134 31.9922C104.134 31.8981 104.26 31.7687 104.513 31.604C104.564 31.557 104.538 31.4982 104.437 31.4276C104.361 31.357 104.348 31.31 104.399 31.2864C104.501 31.2629 104.601 31.2629 104.703 31.2864C104.803 31.2864 104.88 31.3217 104.93 31.3923C105.36 32.004 105.689 32.6275 105.917 33.2627C106.145 33.8744 106.321 34.5096 106.448 35.1683C106.549 36.6976 106.612 38.1915 106.637 39.6501C106.688 41.1088 106.676 42.5322 106.6 43.9202C106.549 44.5555 106.498 45.1789 106.448 45.7906C106.398 46.4023 106.321 47.0022 106.221 47.5904ZM119.702 31.8864C120.03 32.1922 120.309 32.5569 120.536 32.9803C120.764 33.4038 120.941 33.8626 121.068 34.3567C121.194 34.8507 121.244 35.3565 121.219 35.8741C121.219 36.3682 121.144 36.8387 120.991 37.2857C120.334 40.8853 118.399 43.8849 115.187 46.2847C114.832 46.5199 114.491 46.6611 114.162 46.7081C113.833 46.7787 113.517 46.9081 113.213 47.0963C113.011 47.214 112.809 47.3081 112.607 47.3786C112.429 47.4492 112.215 47.4845 111.962 47.4845C111.911 47.3669 111.898 47.261 111.923 47.1669C111.948 47.0728 111.987 46.9669 112.037 46.8493C112.062 46.7552 112.062 46.6376 112.037 46.4964C112.037 46.3788 112.062 46.2729 112.113 46.1788C112.215 46.0141 112.303 45.8612 112.379 45.72C112.48 45.5789 112.543 45.4495 112.568 45.3318C112.568 45.2142 112.48 45.0966 112.303 44.9789C112.151 44.8378 112.037 44.6731 111.962 44.4849C111.632 43.732 111.354 42.8851 111.126 41.944C110.899 40.9794 110.697 39.9913 110.52 38.9796C110.367 37.9445 110.229 36.9211 110.102 35.9094C110.001 34.8742 109.912 33.9096 109.837 33.0156L108.926 33.3685C108.8 33.4156 108.711 33.3332 108.66 33.1215C108.61 32.9098 108.61 32.7098 108.66 32.5216L108.85 31.8511C108.901 31.7334 108.926 31.604 108.926 31.4629C108.926 31.2982 109.002 31.157 109.153 31.0394C109.406 30.8512 109.773 30.6394 110.254 30.4042C110.76 30.1689 111.329 30.063 111.962 30.0866C112.594 29.7807 113.264 29.5925 113.972 29.5219C114.681 29.4514 115.377 29.4984 116.059 29.6631C116.742 29.8043 117.4 30.063 118.032 30.4395C118.665 30.8159 119.221 31.2982 119.702 31.8864ZM119.702 33.6861C119.373 32.9333 118.855 32.4039 118.146 32.0981C117.463 31.7687 116.717 31.5805 115.907 31.5335C115.124 31.4864 114.365 31.5452 113.631 31.7099C112.897 31.8746 112.341 32.0746 111.962 32.3098C112.037 33.0862 112.113 33.9567 112.189 34.9213C112.29 35.8859 112.404 36.8858 112.531 37.9209C112.682 38.9326 112.86 39.956 113.062 40.9912C113.29 42.0263 113.568 42.9909 113.896 43.8849C114.857 43.2968 115.73 42.638 116.515 41.9087C117.299 41.1559 117.956 40.3559 118.488 39.509C119.018 38.6385 119.385 37.721 119.588 36.7564C119.816 35.7683 119.853 34.7448 119.702 33.6861Z" fill="black"/>
</g>
<defs>
<clipPath id="clip0_9_8">
<rect width="145" height="84" fill="white"/>
</clipPath>
</defs>
</svg>
