<svg width="26" height="22" viewBox="0 0 26 22" fill="none" xmlns="http://www.w3.org/2000/svg">
<path d="M0.24707 7.31524C0.24707 13.3939 5.27136 16.6331 8.94923 19.5325C10.2471 20.5556 11.4971 21.5189 12.7471 21.5189C13.9971 21.5189 15.2471 20.5556 16.5449 19.5325C20.2228 16.6331 25.2471 13.3939 25.2471 7.31524C25.2471 1.23656 18.3718 -3.07431 12.7471 2.76965C7.12227 -3.07431 0.24707 1.23656 0.24707 7.31524Z" fill="url(#paint0_linear_175_92)"/>
<path d="M12.3868 3.11638L12.7471 3.49066L13.1073 3.11638C15.7917 0.327356 18.6938 0.0184276 20.8985 1.0262C23.1347 2.04838 24.7471 4.46297 24.7471 7.31524C24.7471 10.1985 23.5614 12.4147 21.9014 14.2841C20.5432 15.8134 18.8946 17.0841 17.3243 18.2943C16.9554 18.5786 16.5909 18.8596 16.2354 19.1398C15.5819 19.655 14.9718 20.1294 14.3758 20.4776C13.7796 20.826 13.2451 21.0189 12.7471 21.0189C12.249 21.0189 11.7145 20.826 11.1183 20.4776C10.5224 20.1294 9.91229 19.655 9.25878 19.1398C8.90332 18.8596 8.53875 18.5786 8.16987 18.2943C6.59958 17.0841 4.95098 15.8134 3.59281 14.2841C1.93271 12.4147 0.74707 10.1985 0.74707 7.31524C0.74707 4.46297 2.35942 2.04838 4.59564 1.0262C6.80033 0.0184281 9.70239 0.327355 12.3868 3.11638Z" stroke="url(#paint1_linear_175_92)" stroke-opacity="0.3"/>
<defs>
<linearGradient id="paint0_linear_175_92" x1="6.53102" y1="-4.67559e-07" x2="18.9631" y2="21.5189" gradientUnits="userSpaceOnUse">
<stop stop-color="#FF8B8B"/>
<stop offset="1" stop-color="#FF0000"/>
</linearGradient>
<linearGradient id="paint1_linear_175_92" x1="12.7471" y1="0" x2="12.7471" y2="21.5189" gradientUnits="userSpaceOnUse">
<stop stop-color="white"/>
<stop offset="1" stop-color="#999999"/>
</linearGradient>
</defs>
</svg>
