<svg width="21" height="22" viewBox="0 0 21 22" fill="none" xmlns="http://www.w3.org/2000/svg">
<mask id="path-1-inside-1_175_97" fill="white">
<path fill-rule="evenodd" clip-rule="evenodd" d="M3.70597 9.69512L2.18197 6.64712C0.586061 3.4553 -0.211891 1.85939 0.521317 1.12618C1.25453 0.392967 2.85044 1.19092 6.04226 2.78683L17.5892 8.56031C19.8351 9.68324 20.958 10.2447 20.958 11.1338C20.958 12.023 19.8351 12.5844 17.5892 13.7074L6.04226 19.4808C2.85044 21.0768 1.25453 21.8747 0.521316 21.1415C-0.211894 20.4083 0.586063 18.8124 2.18197 15.6206L3.70605 12.5724L12.5635 12.5724C13.358 12.5724 14.0021 11.9283 14.0021 11.1338C14.0021 10.3392 13.358 9.69512 12.5635 9.69512L3.70597 9.69512Z"/>
</mask>
<path fill-rule="evenodd" clip-rule="evenodd" d="M3.70597 9.69512L2.18197 6.64712C0.586061 3.4553 -0.211891 1.85939 0.521317 1.12618C1.25453 0.392967 2.85044 1.19092 6.04226 2.78683L17.5892 8.56031C19.8351 9.68324 20.958 10.2447 20.958 11.1338C20.958 12.023 19.8351 12.5844 17.5892 13.7074L6.04226 19.4808C2.85044 21.0768 1.25453 21.8747 0.521316 21.1415C-0.211894 20.4083 0.586063 18.8124 2.18197 15.6206L3.70605 12.5724L12.5635 12.5724C13.358 12.5724 14.0021 11.9283 14.0021 11.1338C14.0021 10.3392 13.358 9.69512 12.5635 9.69512L3.70597 9.69512Z" fill="url(#paint0_linear_175_97)"/>
<path d="M2.18197 6.64712L1.28755 7.09433L2.18197 6.64712ZM3.70597 9.69512L2.81155 10.1423L3.08794 10.6951L3.70597 10.6951L3.70597 9.69512ZM0.521317 1.12618L-0.185789 0.419069L-0.185791 0.419071L0.521317 1.12618ZM6.04226 2.78683L6.48947 1.89241L6.04226 2.78683ZM17.5892 8.56031L18.0364 7.66589L17.5892 8.56031ZM17.5892 13.7074L17.142 12.8129L17.142 12.8129L17.5892 13.7074ZM6.04226 19.4808L6.48947 20.3753L6.48947 20.3753L6.04226 19.4808ZM2.18197 15.6206L1.28755 15.1733L2.18197 15.6206ZM3.70605 12.5724L3.70605 11.5724L3.08801 11.5724L2.81162 12.1252L3.70605 12.5724ZM14.0021 11.1338L15.0021 11.1338L15.0021 11.1338L14.0021 11.1338ZM12.5635 9.69512L12.5635 10.6951L12.5635 10.6951L12.5635 9.69512ZM1.28755 7.09433L2.81155 10.1423L4.6004 9.24791L3.0764 6.1999L1.28755 7.09433ZM-0.185791 0.419071C-1.01952 1.25281 -0.770601 2.41226 -0.466963 3.2912C-0.132807 4.25847 0.503879 5.527 1.28755 7.09433L3.0764 6.1999C2.26415 4.57542 1.70391 3.45008 1.42341 2.63814C1.1124 1.73786 1.32895 1.73276 1.22842 1.83328L-0.185791 0.419071ZM6.48947 1.89241C4.92214 1.10874 3.65361 0.472054 2.68634 0.137897C1.8074 -0.165743 0.647945 -0.414664 -0.185789 0.419069L1.22842 1.83328C1.1279 1.93381 1.133 1.71726 2.03328 2.02827C2.84522 2.30877 3.97055 2.86901 5.59504 3.68126L6.48947 1.89241ZM18.0364 7.66589L6.48947 1.89241L5.59504 3.68126L17.142 9.45474L18.0364 7.66589ZM21.958 11.1338C21.958 10.178 21.3183 9.55452 20.6881 9.11473C20.052 8.67073 19.1289 8.21214 18.0364 7.66589L17.142 9.45474C18.2954 10.0314 19.0567 10.415 19.5435 10.7548C19.7794 10.9195 19.8883 11.0325 19.9355 11.0983C19.9561 11.1268 19.9598 11.1394 19.9591 11.1375C19.958 11.1343 19.958 11.1309 19.958 11.1338L21.958 11.1338ZM18.0364 14.6018C19.1289 14.0555 20.052 13.5969 20.6881 13.1529C21.3183 12.7132 21.958 12.0897 21.958 11.1338L19.958 11.1338C19.958 11.1368 19.958 11.1334 19.9591 11.1301C19.9598 11.1283 19.9561 11.1408 19.9355 11.1694C19.8883 11.2351 19.7794 11.3482 19.5435 11.5129C19.0567 11.8527 18.2954 12.2363 17.142 12.8129L18.0364 14.6018ZM6.48947 20.3753L18.0364 14.6018L17.142 12.8129L5.59504 18.5864L6.48947 20.3753ZM-0.185792 21.8486C0.647943 22.6823 1.8074 22.4334 2.68634 22.1298C3.65361 21.7956 4.92214 21.1589 6.48947 20.3753L5.59504 18.5864C3.97055 19.3987 2.84522 19.9589 2.03328 20.2394C1.133 20.5504 1.1279 20.3339 1.22842 20.4344L-0.185792 21.8486ZM1.28755 15.1733C0.503879 16.7407 -0.132806 18.0092 -0.466964 18.9765C-0.770602 19.8554 -1.01953 21.0149 -0.185792 21.8486L1.22842 20.4344C1.32895 20.5349 1.1124 20.5298 1.42341 19.6295C1.70391 18.8176 2.26416 17.6923 3.0764 16.0678L1.28755 15.1733ZM2.81162 12.1252L1.28755 15.1733L3.0764 16.0678L4.60047 13.0196L2.81162 12.1252ZM12.5635 11.5724L3.70605 11.5724L3.70605 13.5724L12.5635 13.5724L12.5635 11.5724ZM13.0021 11.1338C13.0021 11.376 12.8058 11.5724 12.5635 11.5724L12.5635 13.5724C13.9103 13.5724 15.0021 12.4806 15.0021 11.1338L13.0021 11.1338ZM12.5635 10.6951C12.8057 10.6951 13.0021 10.8915 13.0021 11.1338L15.0021 11.1338C15.0021 9.78694 13.9103 8.69512 12.5635 8.69512L12.5635 10.6951ZM3.70597 10.6951L12.5635 10.6951L12.5635 8.69512L3.70597 8.69512L3.70597 10.6951Z" fill="white" fill-opacity="0.5" mask="url(#path-1-inside-1_175_97)"/>
<defs>
<linearGradient id="paint0_linear_175_97" x1="20.958" y1="11.1338" x2="0.246946" y2="11.1338" gradientUnits="userSpaceOnUse">
<stop stop-color="#FFEFD7"/>
<stop offset="1" stop-color="#FFC061"/>
</linearGradient>
</defs>
</svg>
