<svg width="22" height="22" viewBox="0 0 22 22" fill="none" xmlns="http://www.w3.org/2000/svg">
<path fill-rule="evenodd" clip-rule="evenodd" d="M10.622 21.7549C16.466 21.7549 21.2035 17.0173 21.2035 11.1734C21.2035 5.32938 16.466 0.591888 10.622 0.591888C4.77802 0.591888 0.0405273 5.32938 0.0405273 11.1734C0.0405273 17.0173 4.77802 21.7549 10.622 21.7549ZM11.4156 7.99894C11.4156 7.56064 11.0603 7.20533 10.622 7.20533C10.1837 7.20533 9.82841 7.56064 9.82841 7.99894V10.3798H7.44758C7.00928 10.3798 6.65396 10.7351 6.65396 11.1734C6.65396 11.6117 7.00928 11.967 7.44758 11.967H9.82841V14.3478C9.82841 14.7861 10.1837 15.1414 10.622 15.1414C11.0603 15.1414 11.4156 14.7861 11.4156 14.3478V11.967H13.7965C14.2348 11.967 14.5901 11.6117 14.5901 11.1734C14.5901 10.7351 14.2348 10.3798 13.7965 10.3798H11.4156V7.99894Z" fill="url(#paint0_linear_175_136)"/>
<defs>
<linearGradient id="paint0_linear_175_136" x1="32.5407" y1="21.7793" x2="3.03411" y2="1.31316" gradientUnits="userSpaceOnUse">
<stop stop-color="#FFF5E7"/>
<stop offset="1" stop-color="#FFC061"/>
</linearGradient>
</defs>
</svg>
